<?xml version="1.0" encoding="utf-8"?>
<!-- Generator: Adobe Illustrator 26.5.0, SVG Export Plug-In . SVG Version: 6.00 Build 0)  -->
<svg version="1.1" id="Layer_1" xmlns="http://www.w3.org/2000/svg" xmlns:xlink="http://www.w3.org/1999/xlink" x="0px" y="0px"
	 viewBox="0 0 64 64" style="enable-background:new 0 0 64 64;" xml:space="preserve">
<style type="text/css">
	.st0{fill:#28743C;}
	.st1{fill:none;}
</style>
<g>
	<path class="st0" d="M12.64,40.72c0-0.54-0.44-0.98-0.98-0.98c-0.54,0-0.98,0.44-0.98,0.98v0.96c0,0.54,0.44,0.98,0.98,0.98
		s0.98-0.44,0.98-0.98C12.64,41.68,12.64,40.72,12.64,40.72z"/>
	<path class="st0" d="M61.04,59.11h-0.98c-0.54,0-0.98,0.44-0.98,0.98s0.44,0.98,0.98,0.98h0.98c0.54,0,0.96-0.44,0.96-0.98
		C62.02,59.54,61.58,59.11,61.04,59.11z"/>
	<g>
		<path class="st1" d="M34.9,42.39h5.82c0.41,0,0.73-0.33,0.73-0.72v-5.82c0-0.39-0.33-0.72-0.73-0.72H34.9
			c-0.41,0-0.73,0.33-0.73,0.72v5.82C34.16,42.08,34.49,42.39,34.9,42.39z M35.63,36.59H40v4.36h-4.36L35.63,36.59L35.63,36.59z"/>
		<path class="st1" d="M30.09,35.12h-5.84c-0.41,0-0.72,0.33-0.72,0.72v5.84c0,0.41,0.33,0.72,0.72,0.72h5.84
			c0.41,0,0.72-0.33,0.72-0.72v-5.84C30.81,35.45,30.48,35.12,30.09,35.12z M29.35,40.96h-4.38v-4.38h4.38
			C29.35,36.58,29.35,40.96,29.35,40.96z"/>
		<path class="st1" d="M34.9,31.77h5.82c0.41,0,0.73-0.33,0.73-0.73v-5.82c0-0.41-0.33-0.72-0.73-0.72H34.9
			c-0.41,0-0.73,0.33-0.73,0.73v5.8C34.16,31.45,34.49,31.77,34.9,31.77z M35.63,25.94H40v4.36h-4.36L35.63,25.94L35.63,25.94z"/>
		<path class="st1" d="M30.09,24.49h-5.84c-0.41,0-0.72,0.33-0.72,0.74v5.83c0,0.41,0.33,0.74,0.72,0.74h5.84
			c0.41,0,0.72-0.33,0.72-0.74v-5.84C30.81,24.8,30.48,24.49,30.09,24.49z M29.35,30.31h-4.38v-4.38h4.38
			C29.35,25.93,29.35,30.31,29.35,30.31z"/>
		<path class="st1" d="M34.9,21.11h5.82c0.41,0,0.73-0.33,0.73-0.72v-5.83c0-0.39-0.33-0.72-0.73-0.72H34.9
			c-0.41,0-0.73,0.33-0.73,0.73v5.82C34.16,20.8,34.49,21.11,34.9,21.11z M35.63,15.3H40v4.36h-4.36L35.63,15.3L35.63,15.3z"/>
		<path class="st1" d="M30.09,13.83h-5.84c-0.41,0-0.72,0.33-0.72,0.74v5.84c0,0.41,0.33,0.72,0.72,0.72h5.84
			c0.41,0,0.72-0.33,0.72-0.72v-5.86C30.81,14.16,30.48,13.83,30.09,13.83z M29.35,19.67h-4.38v-4.38h4.38
			C29.35,15.29,29.35,19.67,29.35,19.67z"/>
		<path class="st1" d="M15.89,47.93c1.31-2.33,0.46-5.29-1.87-6.58c-0.08-0.04-0.15-0.08-0.21-0.15c-0.4-0.37-0.42-0.98-0.04-1.37
			c1.06-1.12,1.06-2.87,0-4c-1.1-1.17-2.94-1.23-4.1-0.12c-1.17,1.1-1.23,2.94-0.12,4.1c0.06,0.04,0.1,0.12,0.15,0.19
			c0.27,0.46,0.08,1.06-0.37,1.31C8.1,42,7.23,43.18,6.94,44.58c-0.54,2.62,1.14,5.18,3.77,5.73v-5.73c0-0.52,0.44-0.96,0.98-0.96
			s0.98,0.44,0.96,0.98v5.73C14.01,50.05,15.2,49.15,15.89,47.93z"/>
		<path class="st1" d="M45.53,21.11h5.84c0.41,0,0.72-0.33,0.72-0.72v-5.84c0-0.41-0.33-0.74-0.72-0.74h-5.84
			c-0.39,0.02-0.72,0.35-0.72,0.74v5.84C44.8,20.8,45.13,21.11,45.53,21.11z M46.26,15.28h4.38v4.38h-4.38V15.28z"/>
		<path class="st1" d="M51.39,24.49h-5.84c-0.41,0-0.72,0.33-0.72,0.74v5.83c0,0.41,0.33,0.74,0.72,0.74h5.84
			c0.41,0,0.72-0.33,0.72-0.74v-5.84C52.11,24.8,51.78,24.49,51.39,24.49z M50.65,30.31h-4.38v-4.38h4.38V30.31z"/>
		<path class="st1" d="M51.39,35.12h-5.84c-0.41,0-0.72,0.33-0.72,0.72v5.84c0,0.41,0.33,0.72,0.72,0.72h5.84
			c0.41,0,0.72-0.33,0.72-0.72v-5.84C52.11,35.45,51.78,35.12,51.39,35.12z M50.65,40.96h-4.38v-4.38h4.38V40.96z"/>
		<rect x="24.97" y="36.58" class="st0" width="4.38" height="4.38"/>
		<rect x="35.63" y="36.59" class="st0" width="4.36" height="4.36"/>
		<rect x="35.63" y="15.3" class="st0" width="4.36" height="4.36"/>
		<rect x="24.97" y="15.29" class="st0" width="4.38" height="4.38"/>
		<rect x="24.97" y="25.93" class="st0" width="4.38" height="4.38"/>
		<rect x="35.63" y="25.94" class="st0" width="4.36" height="4.36"/>
		<rect x="46.27" y="25.93" class="st0" width="4.38" height="4.38"/>
		<path class="st0" d="M57.17,59.11h-0.96V9.72c0-0.54-0.44-0.98-0.96-0.98h-5.81V3.92c0-0.54-0.44-0.98-0.98-0.98H27.15
			c-0.52,0-0.98,0.44-0.98,0.98v4.85h-5.79c-0.54,0-0.96,0.44-0.96,0.98v49.38h-6.79v-6.85c3.71-0.54,6.27-3.98,5.75-7.68
			c-0.25-1.73-1.15-3.27-2.52-4.35c1.33-2.31,0.54-5.27-1.77-6.62c-2.31-1.33-5.27-0.54-6.6,1.77c-0.85,1.5-0.85,3.33,0,4.83
			c-2.94,2.31-3.43,6.58-1.12,9.51c1.08,1.37,2.64,2.27,4.35,2.52v2.08l-1.25-1.25c-0.37-0.37-1-0.37-1.37,0s-0.37,1,0,1.37
			l2.41,2.42c0.06,0.06,0.12,0.1,0.21,0.15v2.06H2.96C2.44,59.09,2,59.52,2,60.06s0.44,0.98,0.96,0.98h54.21
			c0.54,0,0.98-0.44,0.98-0.98C58.15,59.54,57.71,59.11,57.17,59.11z M11.66,43.62c-0.54,0-0.98,0.44-0.98,0.96v5.73
			c-2.62-0.54-4.31-3.1-3.77-5.73C7.2,43.19,8.08,42,9.3,41.31c0.46-0.25,0.65-0.85,0.37-1.31c-0.04-0.06-0.08-0.15-0.15-0.19
			c-1.1-1.17-1.04-3,0.12-4.1c1.17-1.1,3-1.04,4.1,0.12c1.06,1.12,1.06,2.87,0,4c-0.37,0.4-0.35,1,0.04,1.37
			c0.06,0.06,0.12,0.1,0.21,0.15c2.33,1.29,3.19,4.25,1.87,6.58c-0.69,1.23-1.87,2.12-3.27,2.39V44.6
			C12.64,44.05,12.2,43.62,11.66,43.62z M34.16,14.58c0-0.41,0.33-0.73,0.73-0.73h5.82c0.41,0,0.73,0.33,0.73,0.72v5.83
			c0,0.39-0.33,0.72-0.73,0.72H34.9c-0.41,0-0.73-0.31-0.73-0.72v-5.82H34.16z M34.16,25.24c0-0.41,0.33-0.73,0.73-0.73h5.82
			c0.41,0,0.73,0.31,0.73,0.72v5.82c0,0.41-0.33,0.73-0.73,0.73H34.9c-0.41,0-0.73-0.33-0.73-0.73v-5.81H34.16z M34.16,35.86
			c0-0.39,0.33-0.72,0.73-0.72h5.82c0.41,0,0.73,0.33,0.73,0.72v5.82c0,0.39-0.33,0.72-0.73,0.72H34.9c-0.41,0-0.73-0.31-0.73-0.72
			v-5.82H34.16z M30.81,41.69c0,0.39-0.31,0.72-0.72,0.72h-5.84c-0.39,0-0.72-0.31-0.72-0.72v-5.84c0-0.39,0.31-0.72,0.72-0.72h5.84
			c0.39,0,0.72,0.33,0.72,0.72V41.69z M30.81,31.05c0,0.41-0.31,0.74-0.72,0.74h-5.84c-0.39,0-0.72-0.33-0.72-0.74v-5.83
			c0-0.41,0.31-0.74,0.72-0.74h5.84c0.39,0,0.72,0.31,0.72,0.72V31.05z M30.81,20.41c0,0.39-0.31,0.72-0.72,0.72h-5.84
			c-0.39,0-0.72-0.31-0.72-0.72v-5.84c0-0.41,0.31-0.74,0.72-0.74h5.84c0.39,0,0.72,0.33,0.72,0.72V20.41z M43.62,59.11h-1.94h-2.91
			h-1.92h-2.91h-1.92v-12.6c0-0.52,0.44-0.96,0.96-0.96h9.68c0.52,0,0.96,0.42,0.96,0.96C43.62,46.51,43.62,59.11,43.62,59.11z
			 M44.8,14.55c0-0.39,0.33-0.72,0.72-0.74h5.84c0.39,0,0.72,0.33,0.72,0.74v5.84c0,0.39-0.31,0.72-0.72,0.72h-5.84
			c-0.39,0-0.72-0.31-0.72-0.72V14.55z M52.11,41.69c0,0.39-0.31,0.72-0.72,0.72h-5.84c-0.39,0-0.72-0.31-0.72-0.72v-5.84
			c0-0.39,0.31-0.72,0.72-0.72h5.84c0.39,0,0.72,0.33,0.72,0.72V41.69z M52.11,31.05c0,0.41-0.31,0.74-0.72,0.74h-5.84
			c-0.39,0-0.72-0.33-0.72-0.74v-5.83c0-0.41,0.31-0.74,0.72-0.74h5.84c0.39,0,0.72,0.31,0.72,0.72V31.05z M28.13,4.89h19.36v3.87
			H28.13V4.89z"/>
		<rect x="38.77" y="47.49" class="st0" width="2.91" height="11.62"/>
		<rect x="33.94" y="47.49" class="st0" width="2.91" height="11.62"/>
		<rect x="46.27" y="36.58" class="st0" width="4.38" height="4.38"/>
		<rect x="46.26" y="15.28" class="st0" width="4.38" height="4.38"/>
		<line class="st1" x1="41.68" y1="59.11" x2="38.77" y2="59.11"/>
		<line class="st1" x1="33.94" y1="59.11" x2="36.85" y2="59.11"/>
	</g>
</g>
</svg>
