<?xml version="1.0" encoding="utf-8"?>
<!-- Generator: Adobe Illustrator 26.4.0, SVG Export Plug-In . SVG Version: 6.00 Build 0)  -->
<svg version="1.1" id="Layer_1" xmlns="http://www.w3.org/2000/svg" xmlns:xlink="http://www.w3.org/1999/xlink" x="0px" y="0px"
	 viewBox="0 0 64 64" style="enable-background:new 0 0 64 64;" xml:space="preserve">
<style type="text/css">
	.st0{fill:#28743C;}
</style>
<g>
	<g>
		<path class="st0" d="M35.08,41.14c-5.42,2.96-10.72,4.28-16.54,2.83C6.86,41.06,0.04,29.41,3.4,17.92
			C6.74,6.52,19,0.25,30.26,4.17c11.12,3.87,16.98,16.62,12.15,27.51c-1.45,3.26-0.97,4.88,1.46,7.04
			C49,43.31,53.88,48.2,58.88,52.94c2.09,1.98,3.89,4.26,1.29,6.81c-2.52,2.48-4.8,0.81-6.89-1.21
			C47.32,52.77,41.3,47.08,35.08,41.14z M37.52,32.04c4.86-7.82,2.37-17.8-5.63-22.6c-7.99-4.8-18.39-2.08-23.07,6.03
			c-4.66,8.07-1.77,18.43,6.39,22.94c8.18,4.51,17.99,1.67,22.42-6.5L37.52,32.04z"/>
		<path class="st0" d="M37.64,32.01c-8.96,0-17.93,0-27.78,0c2.78-5.41,8-4.81,11.44-6.56c-1.04-3.2-2.29-6.33-3.06-9.58
			c-0.92-3.89,1.81-5.27,4.94-5.86c3.3-0.62,6.23,1.41,6.03,4.73c-0.2,3.47-1.47,6.87-2.42,10.94c2.74,2,9.12,0.45,10.73,6.46
			C37.52,32.14,37.64,32.01,37.64,32.01z"/>
	</g>
</g>
</svg>
