<?xml version="1.0" encoding="utf-8"?>
<!-- Generator: Adobe Illustrator 26.4.0, SVG Export Plug-In . SVG Version: 6.00 Build 0)  -->
<svg version="1.1" id="Layer_1" xmlns="http://www.w3.org/2000/svg" xmlns:xlink="http://www.w3.org/1999/xlink" x="0px" y="0px"
	 viewBox="0 0 64 64" style="enable-background:new 0 0 64 64;" xml:space="preserve">
<style type="text/css">
	.st0{fill:#28743C;}
</style>
<g>
	<g>
		<path class="st0" d="M21.29,42.42c2.2,1.63,4.85,2.9,6.5,4.96c4.01,5.01,5.25,5.2,8.91,0.18c3.06-4.2,9.73-5.45,14.74-2.76
			c4.55,2.45,7.59,10.03,5.55,14.49c-0.4,0.87-2.07,1.62-3.15,1.63c-14.33,0.11-28.66,0.14-42.98-0.08
			c-1.1-0.02-2.99-1.96-3.11-3.16C6.76,48.65,11.48,43.55,21.29,42.42z"/>
		<path class="st0" d="M32.51,38.79c-7.46,0.08-13.52-5.82-13.64-13.3c-0.12-7.51,5.68-13.51,13.24-13.69
			c7.71-0.19,13.99,5.9,13.95,13.52C46.01,32.7,39.98,38.7,32.51,38.79z"/>
		<path class="st0" d="M21.35,36.08c-0.92,1.09-1.1,1.51-1.32,1.54c-6.55,0.82-14.62-7.3-13.56-13.64c0.13-0.8,0.37-2.06,0.86-2.24
			c4.76-1.67,5.16-6.59,7.6-9.96c9.55-13.19,29.92-11.16,37.26,3.65c1,2.01,3.87,3.31,4.36,5.31c0.87,3.59,0.67,7.46,0.63,11.22
			c0,0.27-2.59,1.05-3.58,0.64c-1.13-0.47-2.34-1.9-2.6-3.11c-0.6-2.77-0.35-5.73-0.98-8.48C48.02,12.36,39.95,6.17,31.65,6.65
			c-8.81,0.52-16,7.37-17.13,16.4C13.81,28.76,13.29,34.43,21.35,36.08z"/>
	</g>
</g>
</svg>
