<?xml version="1.0" encoding="utf-8"?>
<!-- Generator: Adobe Illustrator 26.4.0, SVG Export Plug-In . SVG Version: 6.00 Build 0)  -->
<svg version="1.1" id="Layer_1" xmlns="http://www.w3.org/2000/svg" xmlns:xlink="http://www.w3.org/1999/xlink" x="0px" y="0px"
	 viewBox="0 0 64 64" style="enable-background:new 0 0 64 64;" xml:space="preserve">
<style type="text/css">
	.st0{fill:#28743C;}
</style>
<g>
	<g>
		<path class="st0" d="M42.62,56.22V36.43h-0.3h-0.39h-6.17V20.87h-3.81v-3.64h-3.62v-3.26l-8.55-2.48V3H17.8v33.43h-6.14h-0.39
			h-0.3v19.78h-7.6v1.01c0,2.09,1.69,3.78,3.78,3.78h49.72c2.09,0,3.78-1.69,3.78-3.78v-1.01H42.62z M16.24,52.13h-3.68v-4.72h3.68
			V52.13z M16.24,45.44h-3.68v-4.72h3.68V45.44z M19.77,45.64H31.6v4.1H19.77V45.64z M19.77,42.8v-4.1H31.6v4.1H19.77z M19.77,35.86
			v-4.1H31.6v4.1H19.77z M19.77,28.91v-4.1H31.6v4.1H19.77z M32.93,56.22H19.77v-4.1h13.16V56.22z M41.02,52.13h-3.68v-4.72h3.68
			V52.13z M41.02,45.44h-3.68v-4.72h3.68V45.44z"/>
		
			<ellipse transform="matrix(0.9436 -0.331 0.331 0.9436 -2.0016 14.9559)" class="st0" cx="42.91" cy="13.35" rx="2.85" ry="2.85"/>
		<path class="st0" d="M36.17,14.97c0.62-0.12,1.09-0.01,1.38,0.38c0,0.01,0,0.02,0,0.03c-0.01,0.08,0.07,0.31,0.12,0.38
			c0.18,0.26,0.09,0.44-0.12,0.63c-0.29,0.26-0.56,0.55-0.85,0.83c0.78,0.78,1.52,1.53,2.29,2.31c0.03-0.03,0.06-0.06,0.09-0.08
			c0.03,0.03,0.06,0.06,0.09,0.09c0.27-0.3,0.56-0.63,0.85-0.96c0.14-0.05,0.29-0.06,0.45-0.03c0.15,0.07,0.29,0.12,0.43,0.17
			c0.02,0.01,0.05,0.03,0.07,0.04c0.21,0.13,0.3,0.22,0.29,0.45c-0.02,0.42-0.01,0.84-0.02,1.23c0.02,0,0.04,0,0.07,0
			c0,0.01,0,0.02,0,0.03c1.11,0,2.16,0,3.26,0c0-0.01,0-0.01,0-0.02c0.01,0,0.02,0,0.03,0c-0.01-0.1-0.02-0.2-0.03-0.31
			c0-0.09,0-0.17,0-0.25c-0.01-0.39-0.08-0.81,0.18-1.07c0.2-0.07,0.37-0.12,0.51-0.21c0.32-0.21,0.52-0.1,0.74,0.15
			c0.24,0.28,0.52,0.54,0.79,0.8c0.79-0.79,1.54-1.53,2.32-2.3c-0.39-0.39-0.76-0.77-1.11-1.12c0.07-0.17,0.14-0.32,0.2-0.49
			c0.06-0.07,0.15-0.26,0.16-0.34c0.04-0.23,0.15-0.32,0.33-0.35c0.45,0.02,0.9,0.04,1.38,0.05c0-0.02,0-0.04,0-0.06
			c0.01,0,0.01,0,0.02,0c0-0.2,0-0.4,0-0.6c0-0.86,0.01-1.72,0.01-2.68c-0.08,0.01-0.16,0.01-0.24,0.02
			c-0.14-0.01-0.28-0.01-0.41,0.01c-0.53,0.1-0.91-0.01-1.13-0.38c-0.05-0.12-0.09-0.23-0.15-0.34c-0.01-0.04-0.02-0.08-0.03-0.12
			c-0.04-0.17-0.05-0.28,0.01-0.39c0.03-0.03,0.06-0.07,0.09-0.1c0.31-0.28,0.6-0.59,0.92-0.9c-0.41-0.41-0.78-0.78-1.14-1.15
			c-0.38-0.38-0.75-0.76-1.15-1.16c-0.01,0.01-0.02,0.02-0.03,0.03c-0.02-0.02-0.05-0.05-0.07-0.07c-0.24,0.29-0.5,0.6-0.75,0.9
			c-0.16,0.1-0.34,0.14-0.52,0.14c-0.18-0.09-0.34-0.17-0.5-0.2c-0.38-0.08-0.44-0.29-0.42-0.62c0.02-0.24,0.01-0.47,0.01-0.71
			c0-0.1,0.01-0.2,0.01-0.29c0,0-0.01,0-0.01,0c0-0.04,0-0.08,0-0.12c-1.12,0-2.17,0-3.26,0c0,0.03,0,0.06,0,0.1
			c-0.03,0-0.06,0-0.09,0c0.03,0.47,0.06,0.99,0.08,1.49C41.19,7.85,41.09,7.89,41,7.92c-0.14,0.05-0.28,0.11-0.41,0.17
			c-0.11,0.04-0.21,0.09-0.32,0.13c-0.13,0.02-0.25-0.04-0.37-0.18c-0.23-0.26-0.48-0.5-0.73-0.74c-0.05-0.05-0.1-0.11-0.15-0.16
			c-0.14,0.13-0.24,0.22-0.34,0.32c-0.65,0.65-1.3,1.3-2.03,2.02c0.26,0.22,0.52,0.44,0.76,0.64c0.2,0.2,0.37,0.41,0.33,0.68
			c-0.07,0.15-0.12,0.28-0.17,0.41c-0.01,0.01-0.02,0.02-0.02,0.04c-0.01,0.01-0.01,0.03-0.01,0.05c-0.01,0.03-0.02,0.06-0.03,0.09
			c-0.07,0.25-0.2,0.34-0.46,0.33c-0.42-0.02-0.84-0.01-1.29-0.01c0,0.58,0,1.1,0,1.63c0,0.54,0,1.07,0,1.63
			C35.94,14.98,36.06,15,36.17,14.97z M39.51,12.19c0.33-0.94,1-1.67,1.83-2.07c1.7-0.81,3.9-0.19,4.8,1.68
			c0.81,1.69,0.21,3.71-1.39,4.66c-0.3,0.18-0.62,0.31-0.94,0.4c-0.12-0.01-0.25,0.04-0.38,0.06C40.76,17.3,38.63,14.72,39.51,12.19
			z"/>
	</g>
</g>
</svg>
