<svg id="Layer_1" data-name="Layer 1" xmlns="http://www.w3.org/2000/svg" viewBox="0 0 841 350"><defs><style>.cls-1{fill:#56a150;}.cls-1,.cls-2,.cls-3,.cls-4{fill-rule:evenodd;}.cls-2{fill:#fad131;}.cls-3{fill:#27743c;}.cls-4,.cls-5{fill:#FFFFFF;}</style></defs><path class="cls-1" d="M135.39,18.55A133.88,133.88,0,0,0,45.45,53.09l86.4,115.85,90-118.84A133.86,133.86,0,0,0,135.39,18.55Z"/><path class="cls-2" d="M75.46,273.25a134.5,134.5,0,0,0,119.86,0Z"/><path class="cls-3" d="M151.73,211q-5,6.49-9.75,8.21a30.77,30.77,0,0,1-10.51,1.72A27.09,27.09,0,0,1,120,218.63q-5-2.3-10.7-9.94L17.21,88.91a134.53,134.53,0,0,0,4.54,135.8H249a134.49,134.49,0,0,0,2.08-140.13Z"/><path class="cls-4" d="M365.74,47h35.35V249.34H365.74ZM524.35,249.34,411.08,160.28q-4.74-3.61-6-7.1a22.32,22.32,0,0,1-1.26-7.65,19.82,19.82,0,0,1,1.67-8.35q1.67-3.62,7.24-7.79L519.9,47h54.27l-132.48,98.8L578.35,249.34Z"/><rect class="cls-5" x="583.92" y="47.01" width="35.35" height="202.34"/><rect class="cls-5" x="334.09" y="47.01" width="24.23" height="202.34"/><path class="cls-4" d="M637.67,148.17a100.79,100.79,0,0,0,9.4,42.6h41.31a66,66,0,1,1,50.46,23.45H631.08v35.12H738.84A101.17,101.17,0,1,0,637.67,148.17Z"/><rect class="cls-5" x="334.09" y="298.83" width="2.89" height="28.85"/><path class="cls-4" d="M370.74,314.79c0-5-2.72-7.54-6.85-7.54s-7.14,2.64-7.14,8.12v12.3h-2.89V305.14h2.89V309c1.45-2.81,4.34-4.25,7.68-4.25,5.12,0,9.16,3.13,9.16,9.74v13.2h-2.85Z"/><path class="cls-4" d="M407.18,314.79c0-5-2.73-7.54-6.85-7.54s-7.14,2.64-7.14,8.12v12.3H390.3V305.14h2.89V309c1.44-2.81,4.33-4.25,7.68-4.25,5.11,0,9.16,3.13,9.16,9.74v13.2h-2.85Z"/><path class="cls-4" d="M436.6,328c-6.36,0-11.19-4.46-11.19-11.6s5-11.59,11.28-11.59S448,309.23,448,316.4,443,328,436.6,328Zm0-2.51c4.25,0,8.38-2.89,8.38-9.09s-4-9.07-8.34-9.07-8.3,2.89-8.3,9.07S432.31,325.49,436.6,325.49Z"/><polygon class="cls-4" points="463.96 305.14 471.55 324.87 479.15 305.14 482.2 305.14 473.16 327.67 469.9 327.67 460.87 305.14 463.96 305.14"/><path class="cls-4" d="M505.89,304.81a9.41,9.41,0,0,1,8.91,5.28v-4.95h2.89v22.53H514.8v-5a9.52,9.52,0,0,1-9,5.32c-6.15,0-10.73-4.58-10.73-11.64S499.69,304.81,505.89,304.81Zm.53,2.52c-4.74,0-8.38,3.3-8.38,9s3.64,9.13,8.38,9.13,8.38-3.47,8.38-9.09S511.05,307.33,506.42,307.33Z"/><path class="cls-4" d="M535.43,307.57h-3.14v-2.43h3.14v-5.66h2.93v5.66h6.19v2.43h-6.19v14c0,2.76.95,3.63,3.55,3.63h2.64v2.47h-3.09c-3.92,0-6-1.61-6-6.1Z"/><path class="cls-4" d="M559,298.74a2.11,2.11,0,0,1,4.21,0,2.11,2.11,0,1,1-4.21,0Zm.66,6.4h2.89v22.53h-2.89Z"/><path class="cls-4" d="M589.24,328c-6.36,0-11.19-4.46-11.19-11.6s5-11.59,11.27-11.59,11.27,4.42,11.27,11.59S595.59,328,589.24,328Zm0-2.51c4.25,0,8.38-2.89,8.38-9.09s-4-9.07-8.34-9.07-8.3,2.89-8.3,9.07S585,325.49,589.24,325.49Z"/><path class="cls-4" d="M633.06,314.79c0-5-2.72-7.54-6.85-7.54s-7.14,2.64-7.14,8.12v12.3h-2.89V305.14h2.89V309c1.45-2.81,4.33-4.25,7.68-4.25,5.11,0,9.16,3.13,9.16,9.74v13.2h-2.85Z"/><path class="cls-4" d="M660.38,328c-5.12,0-8.71-2.56-9.08-6.68h3c.25,2.47,2.39,4.25,6.07,4.25,3.22,0,5-1.74,5-3.88,0-5.57-13.54-2.31-13.54-10.77,0-3.35,3.18-6.11,7.93-6.11s8,2.56,8.25,6.89h-2.89c-.16-2.52-2-4.41-5.44-4.41-3,0-4.92,1.61-4.92,3.58,0,6.11,13.34,2.85,13.46,10.82C668.22,325.32,665,328,660.38,328Z"/><path class="cls-4" d="M718.56,328c-8.08,0-14.28-6.06-14.28-14.73s6.2-14.74,14.28-14.74,14.28,6.11,14.28,14.74S726.69,328,718.56,328Zm0-2.52c6.4,0,11.31-4.66,11.31-12.21s-4.91-12.18-11.31-12.18-11.3,4.63-11.3,12.18S712.17,325.44,718.56,325.44Z"/><path class="cls-4" d="M765.32,314.79c0-5-2.73-7.54-6.85-7.54s-7.14,2.64-7.14,8.12v12.3h-2.89V305.14h2.89V309c1.44-2.81,4.33-4.25,7.67-4.25,5.12,0,9.17,3.13,9.17,9.74v13.2h-2.85Z"/><rect class="cls-5" x="784.87" y="297.13" width="2.89" height="30.54"/><polygon class="cls-4" points="820.24 305.14 823.21 305.14 809.84 338.28 806.83 338.28 811.2 327.55 801.96 305.14 805.13 305.14 812.81 324.37 820.24 305.14"/><path class="cls-4" d="M837.94,327.88a2.09,2.09,0,0,1-2.1-2.15,2.08,2.08,0,1,1,4.16,0A2.09,2.09,0,0,1,837.94,327.88Z"/></svg>