<?xml version="1.0" encoding="utf-8"?>
<!-- Generator: Adobe Illustrator 26.4.0, SVG Export Plug-In . SVG Version: 6.00 Build 0)  -->
<svg version="1.1" id="Layer_1" xmlns="http://www.w3.org/2000/svg" xmlns:xlink="http://www.w3.org/1999/xlink" x="0px" y="0px"
	 viewBox="0 0 64 64" style="enable-background:new 0 0 64 64;" xml:space="preserve">
<style type="text/css">
	.st0{fill:#28743C;}
</style>
<g>
	<g>
		<path class="st0" d="M2.07,57.55c0-2.74-0.22-5.43,0.1-8.05c0.15-1.22,1.09-2.67,2.11-3.39c4.47-3.11,9.08-6.02,13.69-8.91
			c0.92-0.58,1.42-1.06,1.39-2.23c-0.06-3.21-1.26-5.96-2.75-8.73c-0.92-1.7-1.24-3.77-1.59-5.71c-0.1-0.58,0.62-1.31,1.13-1.9
			c-0.67-4.97-0.59-9.75,4.07-13.19c-0.33-0.74-0.64-1.46-1.05-2.37c1.5,0.08,2.77,0.21,4.03,0.19c2.05-0.04,4.11-0.15,6.16-0.27
			c2.78-0.16,4.86,0.99,6.38,3.28c0.25,0.39,0.58,0.86,0.98,0.99c2.6,0.9,3.8,2.26,3.89,5.08c0.05,1.78-0.32,3.58-0.38,5.37
			c-0.03,0.74,0.23,1.48,0.38,2.22c0.04,0.2,0.21,0.38,0.22,0.57c0.16,2.44-0.28,4.88-1.93,6.61c-0.86,0.9-1.47,1.69-1.66,2.82
			c-0.3,1.75-0.56,3.52-0.64,5.29c-0.02,0.53,0.51,1.27,1,1.61c1.03,0.73,2.21,1.26,3.4,1.91c-5.32,5.68-6.14,11.78-2.2,18.68
			c-2.42,0-4.69,0.03-6.97-0.05c-0.25-0.01-0.61-0.62-0.7-1.01c-0.63-2.65-1.23-5.31-1.76-7.98c-0.1-0.53,0.11-1.17,0.31-1.7
			c0.26-0.67,0.72-1.25,0.99-1.92c0.67-1.64,0.41-2.74-0.73-3.4c-1.35-0.79-3.98-0.6-4.54,0.56c-0.38,0.81-0.53,2.25-0.06,2.84
			c1.83,2.31,1.05,4.61,0.5,6.99c-0.44,1.9-0.84,3.81-1.27,5.77C17.07,57.55,9.63,57.55,2.07,57.55z"/>
		<path class="st0" d="M50.59,37.89c-6.4-0.06-11.68,5.12-11.73,11.48c-0.05,6.34,5.24,11.66,11.58,11.65
			c6.29,0,11.53-5.21,11.56-11.51C62.03,43.19,56.88,37.94,50.59,37.89z M52.93,45.48c0.95,0,1.89,0,2.85,0
			c-0.01,0.02-0.01,0.03-0.02,0.03c-0.3,0.47-0.61,0.93-0.91,1.4c-0.02,0.03-0.04,0.03-0.07,0.03c-0.58,0-1.16,0-1.73,0
			c-0.02,0-0.04,0-0.06,0c-0.02,0.1-0.03,0.19-0.05,0.28c-0.14,0.7-0.45,1.32-0.93,1.86c-0.52,0.59-1.16,1.01-1.88,1.31
			c-0.51,0.21-1.03,0.35-1.58,0.42c-0.21,0.03-0.42,0.05-0.63,0.07c0.01,0.01,0.01,0.02,0.02,0.03c1.42,1.77,2.84,3.54,4.27,5.31
			c0.53,0.66,1.06,1.32,1.59,1.97c0.01,0.01,0.01,0.02,0.02,0.03c-0.87,0-1.73,0-2.6,0c-0.3-0.37-0.59-0.75-0.89-1.12
			c-1.47-1.85-2.94-3.7-4.41-5.54c-0.11-0.14-0.22-0.28-0.33-0.41c-0.01-0.02-0.02-0.04-0.02-0.06c0-0.44,0-0.88,0-1.33
			c0-0.01,0-0.02,0-0.04c0.02,0,0.04,0,0.06,0c0.5,0,1,0,1.5,0c0.6-0.01,1.19-0.08,1.76-0.29c0.49-0.17,0.92-0.43,1.27-0.81
			c0.36-0.39,0.59-0.85,0.66-1.38c0.01-0.1,0.01-0.2,0.02-0.31c-1.93,0-3.84,0-5.77,0c0.01-0.02,0.02-0.04,0.03-0.05
			c0.3-0.46,0.6-0.91,0.89-1.37c0.02-0.03,0.04-0.04,0.07-0.04c1.51,0,3.01,0,4.52,0c0.02,0,0.04,0,0.06,0
			c-0.01-0.02-0.01-0.04-0.02-0.05c-0.25-0.56-0.67-0.94-1.24-1.18c-0.33-0.14-0.69-0.22-1.04-0.27c-0.53-0.07-1.06-0.08-1.59-0.09
			c-0.54,0-1.08,0-1.63,0c-0.02,0-0.04,0-0.06,0c0.01-0.02,0.02-0.04,0.03-0.05c0.3-0.46,0.6-0.91,0.89-1.37
			c0.02-0.03,0.04-0.04,0.07-0.04c3.22,0,6.44,0,9.66,0c0.01,0,0.03,0,0.05,0c-0.01,0.02-0.02,0.03-0.03,0.04
			c-0.3,0.46-0.6,0.92-0.9,1.38c-0.02,0.03-0.04,0.04-0.08,0.04c-0.83,0-1.66,0-2.48,0c-0.02,0-0.04,0-0.06,0
			C52.62,44.36,52.86,44.89,52.93,45.48z"/>
	</g>
</g>
</svg>
