<?xml version="1.0" encoding="utf-8"?>
<!-- Generator: Adobe Illustrator 26.4.0, SVG Export Plug-In . SVG Version: 6.00 Build 0)  -->
<svg version="1.1" id="Layer_1" xmlns="http://www.w3.org/2000/svg" xmlns:xlink="http://www.w3.org/1999/xlink" x="0px" y="0px"
	 viewBox="0 0 64 64" style="enable-background:new 0 0 64 64;" xml:space="preserve">
<style type="text/css">
	.st0{fill:#28743C;}
</style>
<g>
	<g>
		<path class="st0" d="M2,48.39c3.7-2.96,7.43-5.89,11.11-8.89c2.66-2.17,5.29-4.45,8.87-4.79c1.87-0.17,3.85-0.19,5.66,0.23
			c3.14,0.73,6.2,1.83,9.27,2.82c1.99,0.64,3.17,2.54,2.82,4.42c-0.39,2.13-1.76,3.15-4.13,3.01c-0.7-0.04-1.4-0.22-2.07-0.42
			c-2.25-0.67-4.5-1.34-6.73-2.07c-0.72-0.23-1.35-0.17-1.46,0.57c-0.05,0.34,0.53,0.99,0.95,1.13c2.6,0.87,5.22,1.73,7.87,2.4
			c3.56,0.9,5.8-0.31,7.25-3.63c0.19-0.44,0.62-0.85,1.05-1.09c3.92-2.25,7.87-4.47,11.81-6.68c3.65-2.05,6.1-1.22,7.73,2.59
			c0,0.62,0,1.24,0,1.87c-0.6,1.66-1.78,2.73-3.32,3.58c-6.52,3.61-13,7.27-19.47,10.95c-1.44,0.82-2.87,1.01-4.47,0.62
			c-4.56-1.12-9.13-2.21-13.71-3.23c-0.55-0.12-1.34,0.03-1.8,0.37c-2.75,2.02-5.48,4.09-8.14,6.24c-1.01,0.82-1.56,0.7-2.32-0.33
			c-2.2-3-4.51-5.91-6.78-8.86C2,48.93,2,48.66,2,48.39z"/>
		<path class="st0" d="M26.28,15.73c-2.01-0.42-2.17-0.63-2.17-2.62c0-2.04-0.01-4.09,0.01-6.13c0.01-1.32,0.54-1.89,1.85-1.89
			c8.93-0.02,17.86-0.01,26.79,0c1.29,0,1.86,0.56,1.88,1.87c0.04,2.09,0.02,4.18,0.01,6.27c-0.01,1.88-0.21,2.11-2.22,2.49
			c0,0.43,0,0.9,0,1.37c0,4.53,0,9.07,0,13.6c0,1.62-0.51,2.14-2.16,2.14c-7.24,0.01-14.48,0.01-21.73,0
			c-1.69,0-2.25-0.56-2.25-2.23C26.28,25.66,26.28,20.73,26.28,15.73z M27.35,12.36c8.12,0,16.08,0,24.05,0c0-1.4,0-2.7,0-3.99
			c-8.07,0-16.04,0-24.05,0C27.35,9.73,27.35,11,27.35,12.36z M39.4,19.48c1.02,0,2.04,0,3.05,0c0.93,0,1.62-0.4,1.59-1.37
			c-0.03-0.87-0.68-1.27-1.56-1.27c-2.08,0.01-4.16,0-6.24,0c-0.88,0-1.5,0.39-1.51,1.3c-0.01,0.92,0.61,1.32,1.48,1.33
			C37.28,19.49,38.34,19.48,39.4,19.48z"/>
	</g>
</g>
</svg>
